<svg width="720" height="1280" viewBox="0 0 720 1280" fill="none" xmlns="http://www.w3.org/2000/svg">
  <rect width="720" height="1280" fill="#F8FAFC"/>
  <rect x="0" y="0" width="720" height="80" fill="#EFF6FF"/>
  
  <!-- Header -->
  <rect x="20" y="20" width="40" height="40" rx="20" fill="#1E40AF"/>
  <text x="80" y="45" font-family="Arial" font-size="24" font-weight="bold" fill="#1E40AF">CryptoFuse</text>
  
  <rect x="650" y="20" width="40" height="40" rx="5" fill="white" stroke="#64748B" stroke-width="1"/>
  <rect x="660" y="30" width="20" height="2" fill="#64748B"/>
  <rect x="660" y="38" width="20" height="2" fill="#64748B"/>
  <rect x="660" y="46" width="20" height="2" fill="#64748B"/>
  
  <!-- Hero Section -->
  <text x="40" y="160" font-family="Arial" font-size="36" font-weight="bold" fill="#0F172A">Accept Crypto</text>
  <text x="40" y="205" font-family="Arial" font-size="36" font-weight="bold" fill="#0F172A">Payments</text>
  <text x="40" y="250" font-family="Arial" font-size="36" font-weight="bold" fill="#3B82F6">Seamlessly</text>
  
  <text x="40" y="300" font-family="Arial" font-size="16" fill="#64748B" width="500">Integrate cryptocurrency payments into your business with our secure, fast, and easy-to-use payment gateway.</text>
  
  <rect x="40" y="350" width="180" height="50" rx="25" fill="#3B82F6"/>
  <text x="80" y="382" font-family="Arial" font-size="18" fill="white">Get Started</text>
  
  <rect x="40" y="420" width="180" height="50" rx="25" fill="white" stroke="#3B82F6" stroke-width="1"/>
  <text x="70" y="452" font-family="Arial" font-size="18" fill="#3B82F6">How It Works</text>
  
  <!-- Hero Illustration -->
  <circle cx="360" cy="600" r="180" fill="#EFF6FF"/>
  <circle cx="360" cy="600" r="100" fill="#3B82F6" opacity="0.8"/>
  <circle cx="360" cy="600" r="80" fill="white"/>
  <rect x="320" y="560" width="80" height="80" rx="20" fill="#1E40AF"/>
  
  <!-- Crypto Icons Orbiting -->
  <circle cx="360" cy="420" r="30" fill="#F7931A"/> <!-- BTC -->
  <circle cx="540" cy="600" r="30" fill="#627EEA"/> <!-- ETH -->
  <circle cx="360" cy="780" r="30" fill="#00FFA3"/> <!-- SOL -->
  <circle cx="180" cy="600" r="30" fill="#26A17B"/> <!-- USDT -->
  <circle cx="480" cy="720" r="25" fill="#8247E5"/> <!-- MATIC -->
  <circle cx="240" cy="720" r="25" fill="#2775CA"/> <!-- USDC -->
  <circle cx="480" cy="480" r="25" fill="#FFDD00"/> <!-- DAI -->
  
  <!-- Features Preview -->
  <rect x="40" y="900" width="640" height="160" rx="10" fill="#F1F5F9"/>
  <text x="360" y="950" font-family="Arial" font-size="24" font-weight="bold" fill="#0F172A" text-anchor="middle">Supported Cryptocurrencies</text>
  
  <!-- Currency Cards Preview -->
  <rect x="80" y="980" width="80" height="50" rx="5" fill="#FEF3C7"/>
  <circle cx="120" cy="1000" r="15" fill="#F59E0B"/>
  <text x="120" y="1045" font-family="Arial" font-size="12" fill="#0F172A" text-anchor="middle">Bitcoin</text>
  
  <rect x="180" y="980" width="80" height="50" rx="5" fill="#EDE9FE"/>
  <circle cx="220" cy="1000" r="15" fill="#8B5CF6"/>
  <text x="220" y="1045" font-family="Arial" font-size="12" fill="#0F172A" text-anchor="middle">Ethereum</text>
  
  <rect x="280" y="980" width="80" height="50" rx="5" fill="#D1FAE5"/>
  <circle cx="320" cy="1000" r="15" fill="#10B981"/>
  <text x="320" y="1045" font-family="Arial" font-size="12" fill="#0F172A" text-anchor="middle">Solana</text>
  
  <rect x="380" y="980" width="80" height="50" rx="5" fill="#DBEAFE"/>
  <circle cx="420" cy="1000" r="15" fill="#3B82F6"/>
  <text x="420" y="1045" font-family="Arial" font-size="12" fill="#0F172A" text-anchor="middle">Sui</text>
  
  <rect x="480" y="980" width="80" height="50" rx="5" fill="#E0E7FF"/>
  <circle cx="520" cy="1000" r="15" fill="#6366F1"/>
  <text x="520" y="1045" font-family="Arial" font-size="12" fill="#0F172A" text-anchor="middle">Sei</text>
  
  <!-- Bottom CTA -->
  <rect x="40" y="1150" width="640" height="80" rx="10" fill="#EFF6FF"/>
  <text x="360" y="1195" font-family="Arial" font-size="18" font-weight="bold" fill="#3B82F6" text-anchor="middle">View All Supported Currencies</text>
</svg>